<?xml version="1.0" standalone="no"?>
<!DOCTYPE svg PUBLIC "-//W3C//DTD SVG 20010904//EN"
 "http://www.w3.org/TR/2001/REC-SVG-20010904/DTD/svg10.dtd">
<svg version="1.0" xmlns="http://www.w3.org/2000/svg"
 width="529.000000pt" height="237.000000pt" viewBox="0 0 529.000000 237.000000"
 preserveAspectRatio="xMidYMid meet">

<g transform="translate(0.000000,237.000000) scale(0.100000,-0.100000)"
fill="#000000" stroke="none">
<path d="M769 1771 l-29 -29 0 -557 c0 -613 -2 -592 62 -614 21 -7 214 -11
580 -11 599 0 601 0 627 56 8 18 11 185 11 575 l0 551 -29 29 -29 29 -582 0
-582 0 -29 -29z m879 -566 c101 -233 186 -433 189 -444 5 -20 1 -21 -80 -21
-56 0 -88 4 -94 13 -5 6 -29 60 -53 119 l-44 107 -147 3 -146 3 26 70 27 70
88 3 c64 2 87 6 83 15 -40 102 -122 287 -126 287 -4 0 -69 -155 -146 -345
l-140 -345 -82 0 c-58 0 -83 4 -83 12 0 10 264 642 344 822 l25 56 88 0 88 0
183 -425z"/>
<path d="M2376 1493 c-14 -37 -56 -150 -95 -250 l-69 -183 53 0 53 0 20 58 19
57 98 0 98 0 20 -57 19 -58 49 0 c27 0 49 4 49 8 0 4 -40 116 -89 247 l-89
240 -55 3 -55 3 -26 -68z m118 -148 c14 -44 26 -83 26 -88 0 -4 -29 -7 -65 -7
-36 0 -65 4 -65 9 0 24 63 182 70 174 4 -4 19 -44 34 -88z"/>
<path d="M2750 1310 l0 -250 50 0 50 0 0 250 0 250 -50 0 -50 0 0 -250z"/>
<path d="M3201 1320 c-50 -133 -91 -246 -91 -251 0 -5 22 -9 49 -9 l49 0 20
58 19 57 98 0 98 0 20 -57 19 -58 50 0 c61 0 66 -26 -46 270 l-84 225 -55 3
-54 3 -92 -241z m183 25 c14 -44 26 -83 26 -88 0 -4 -29 -7 -65 -7 -36 0 -65
4 -65 9 0 23 64 181 70 174 4 -4 19 -44 34 -88z"/>
<path d="M3640 1310 l0 -250 50 0 50 0 0 100 0 100 76 0 c41 0 84 -4 94 -10
22 -12 36 -53 45 -132 l6 -58 50 0 49 0 -5 40 c-3 22 -7 58 -10 81 -7 53 -30
96 -55 104 -18 6 -16 10 20 44 36 34 40 43 40 87 0 61 -25 105 -73 127 -28 14
-66 17 -186 17 l-151 0 0 -250z m290 150 c27 -27 26 -81 -1 -106 -16 -15 -40
-20 -105 -23 l-84 -3 0 76 0 76 85 0 c72 0 88 -3 105 -20z"/>
<path d="M4100 1520 l0 -40 75 0 75 0 0 -210 0 -210 50 0 50 0 2 208 3 207 78
3 77 3 0 39 0 40 -205 0 -205 0 0 -40z"/>
<path d="M2210 951 c0 -5 12 -11 28 -13 26 -3 27 -5 30 -75 2 -56 6 -73 17
-73 12 0 15 16 15 75 0 73 1 75 25 75 14 0 25 5 25 10 0 6 -30 10 -70 10 -38
0 -70 -4 -70 -9z"/>
<path d="M2380 875 c0 -69 3 -85 15 -85 11 0 15 11 15 40 l0 40 40 0 40 0 0
-40 c0 -29 4 -40 15 -40 12 0 15 16 15 85 0 69 -3 85 -15 85 -10 0 -15 -11
-15 -35 0 -34 -1 -35 -40 -35 -39 0 -40 1 -40 35 0 24 -5 35 -15 35 -12 0 -15
-16 -15 -85z"/>
<path d="M2560 875 c0 -69 3 -85 15 -85 12 0 15 16 15 85 0 69 -3 85 -15 85
-12 0 -15 -16 -15 -85z"/>
<path d="M2630 875 c0 -68 3 -85 15 -85 10 0 15 16 17 63 l3 62 40 -62 c24
-38 47 -63 58 -63 15 0 17 11 17 85 0 69 -3 85 -15 85 -12 0 -15 -13 -15 -61
0 -35 -4 -58 -9 -54 -6 3 -24 30 -41 60 -21 37 -38 55 -51 55 -17 0 -19 -8
-19 -85z"/>
<path d="M2820 875 c0 -69 3 -85 15 -85 10 0 15 10 15 29 0 16 6 34 14 40 12
10 20 5 42 -28 15 -24 35 -41 45 -41 16 0 14 7 -17 50 l-36 50 26 35 c36 47
12 45 -36 -2 l-38 -37 0 37 c0 26 -4 37 -15 37 -12 0 -15 -16 -15 -85z"/>
<path d="M3050 950 c0 -5 14 -10 30 -10 l30 0 0 -75 c0 -60 3 -75 15 -75 12 0
15 15 15 75 0 73 1 75 25 75 14 0 25 5 25 10 0 6 -30 10 -70 10 -40 0 -70 -4
-70 -10z"/>
<path d="M3220 875 c0 -69 3 -85 15 -85 11 0 15 11 15 40 l0 40 40 0 40 0 0
-40 c0 -29 4 -40 15 -40 12 0 15 16 15 85 0 69 -3 85 -15 85 -10 0 -15 -11
-15 -35 0 -34 -1 -35 -40 -35 -39 0 -40 1 -40 35 0 24 -5 35 -15 35 -12 0 -15
-16 -15 -85z"/>
<path d="M3400 875 l0 -85 65 0 c51 0 65 3 65 15 0 11 -12 15 -50 15 -47 0
-50 2 -50 25 0 23 4 25 45 25 25 0 45 5 45 10 0 6 -21 10 -46 10 -41 0 -45 2
-42 23 3 19 10 22 51 25 71 5 57 22 -18 22 l-65 0 0 -85z"/>
<path d="M3630 875 c0 -69 3 -85 15 -85 12 0 15 16 15 85 0 69 -3 85 -15 85
-12 0 -15 -16 -15 -85z"/>
<path d="M3710 875 c0 -50 4 -85 10 -85 6 0 10 24 10 54 0 30 3 57 8 60 4 2
23 -22 42 -55 21 -37 41 -59 52 -59 16 0 18 10 18 85 0 69 -3 85 -15 85 -12 0
-15 -13 -15 -55 0 -30 -3 -55 -8 -55 -4 0 -22 25 -40 55 -48 81 -62 74 -62
-30z"/>
<path d="M3890 875 c0 -69 3 -85 15 -85 10 0 15 10 15 29 0 16 6 34 14 40 12
10 20 5 42 -28 16 -25 34 -41 46 -41 17 0 15 6 -17 51 l-38 50 34 35 c28 28
30 34 14 34 -11 0 -36 -17 -57 -37 l-38 -37 0 37 c0 26 -4 37 -15 37 -12 0
-15 -16 -15 -85z"/>
</g>
</svg>
